# xmcd
#
# Track frame offsets:
#	150
#	16526
#	35305
#	51965
#	70380
#	84612
#	101191
#	117637
#	134518
#	156528
#	173890
#	191681
#	209973
#	231672
#	249801
#	266748
#
# Disc length: 3789 seconds
#
# Revision: 1
# Processed by: cddbd v1.5.2PL0 Copyright (c) Steve Scherf et al.
# Submitted via: audiograbber 1.83.01
#
DISCID=f50ecb10
DTITLE=Various Artist - Gal Country Funpack Vol #1 [CD1 of 2)
DYEAR=2001
DGENRE=Karaoke
TTITLE0=Tammy Cochran - Angels in Waiting
TTITLE1=Lee Ann Womack - Ashes By Now
TTITLE2=Sara Evans - Born To Fly
TTITLE3=Jo Dee Messina - Burn
TTITLE4=LeAnn Rimes - But I Do Love You
TTITLE5=LeAnn Rimes - Can't Fight the Moonlight
TTITLE6=Lila McCann - Come A Little Closer
TTITLE7=Carolyn Dawn Johnson - Complicated
TTITLE8=Dixie Chicks - Cowboy Take Me Away
TTITLE9=Jo Dee Messina - Downtime
TTITLE10=Dixie Chicks - Heartbreak Town
TTITLE11=Jessica Andrews - Helplessly Hopelessly
TTITLE12=Sara Evans - I Could Not Ask For More
TTITLE13=Lee Ann Womack - I Hope You Dance
TTITLE14=LeAnn Rimes - I Need You
TTITLE15=Trisha Yearwood - I Would've Love You Anyway
EXTD=
EXTT0=
EXTT1=
EXTT2=
EXTT3=
EXTT4=
EXTT5=
EXTT6=
EXTT7=
EXTT8=
EXTT9=
EXTT10=
EXTT11=
EXTT12=
EXTT13=
EXTT14=
EXTT15=
PLAYORDER=
